<svg width="600" height="400" viewBox="0 0 600 400" xmlns="http://www.w3.org/2000/svg"><defs><clipPath id="satori_bc-id"><path x="4" y="4" width="100" height="74" d="M6,4 h96 a2,2 0 0 1 2,2 v70 a2,2 0 0 1 -2,2 h-96 a2,2 0 0 1 -2,-2 v-70 a2,2 0 0 1 2,-2"/></clipPath></defs><mask id="satori_om-id"><rect x="4.5" y="4.5" width="99" height="73" fill="#fff"/><path width="100" height="74" fill="none" stroke="#000" stroke-width="1" d="M4.586,4.586 A2,2 0 0 1 6,4 h96 a2,2 0 0 1 2,2 v70 a2,2 0 0 1 -2,2 h-96 a2,2 0 0 1 -2,-2 v-70 A2,2 0 0 1 4.586,4.586"/></mask><path x="4" y="4" width="100" height="74" fill="transparent" d="M6,4 h96 a2,2 0 0 1 2,2 v70 a2,2 0 0 1 -2,2 h-96 a2,2 0 0 1 -2,-2 v-70 a2,2 0 0 1 2,-2"/><path width="100" height="74" clip-path="url(#satori_bc-id)" fill="none" stroke="#8888" stroke-width="1" d="M4.586,4.586 A2,2 0 0 1 6,4 h96 a2,2 0 0 1 2,2 v70 a2,2 0 0 1 -2,2 h-96 a2,2 0 0 1 -2,-2 v-70 A2,2 0 0 1 4.586,4.586"/><mask id="satori_om-id-0"><rect x="5" y="5" width="99" height="14" fill="#fff"/></mask><rect x="5" y="5" width="99" height="14" fill="#00ff0044"/><path fill="white" d="M9.6 9.2Q10.2 9.2 10.6 9.4Q11.0 9.7 11.3 10.1Q11.5 10.6 11.5 11.2L11.5 11.2L11.5 14.3L12.0 14.3Q12.2 14.3 12.3 14.4Q12.4 14.5 12.4 14.7L12.4 14.7Q12.4 15.0 12.3 15.1Q12.2 15.2 12.0 15.2L12.0 15.2L10.0 15.2Q9.7 15.2 9.7 15.1Q9.6 15.0 9.6 14.7L9.6 14.7Q9.6 14.5 9.7 14.4Q9.7 14.3 10.0 14.3L10.0 14.3L10.5 14.3L10.5 11.3Q10.5 10.8 10.3 10.4Q10.0 10.1 9.5 10.1L9.5 10.1Q9.0 10.1 8.5 10.4Q8.0 10.7 7.8 11.3Q7.5 11.8 7.5 12.5L7.5 12.5L7.5 14.3L8.1 14.3Q8.3 14.3 8.4 14.4Q8.5 14.5 8.5 14.7L8.5 14.7Q8.5 15.0 8.4 15.1Q8.3 15.2 8.1 15.2L8.1 15.2L6.0 15.2Q5.8 15.2 5.7 15.1Q5.6 15.0 5.6 14.7L5.6 14.7Q5.6 14.5 5.7 14.4Q5.8 14.3 6.0 14.3L6.0 14.3L6.5 14.3L6.5 10.2L5.9 10.2Q5.7 10.2 5.6 10.1Q5.5 10.0 5.5 9.7L5.5 9.7Q5.5 9.5 5.6 9.4Q5.7 9.3 5.9 9.3L5.9 9.3L7.0 9.3Q7.2 9.3 7.3 9.4Q7.4 9.5 7.4 9.7L7.4 9.7L7.4 10.5Q7.8 9.8 8.4 9.5Q9.0 9.2 9.6 9.2L9.6 9.2ZM16.7 9.2Q17.7 9.2 18.3 9.5Q19.0 9.9 19.3 10.6Q19.7 11.2 19.7 12.1L19.7 12.1Q19.7 12.3 19.6 12.4Q19.5 12.5 19.3 12.5L19.3 12.5L14.7 12.5Q14.8 13.4 15.3 13.9Q15.8 14.4 16.7 14.4L16.7 14.4Q17.3 14.4 17.9 14.2Q18.5 14.1 18.9 13.8L18.9 13.8Q19.0 13.8 19.1 13.8L19.1 13.8Q19.3 13.8 19.5 14.1L19.5 14.1Q19.5 14.2 19.5 14.4L19.5 14.4Q19.5 14.6 19.2 14.7L19.2 14.7Q18.8 15.0 18.1 15.1Q17.4 15.3 16.7 15.3L16.7 15.3Q15.8 15.3 15.1 14.9Q14.4 14.6 14.1 13.9Q13.7 13.2 13.7 12.2L13.7 12.2Q13.7 11.3 14.1 10.6Q14.5 9.9 15.2 9.5Q15.9 9.2 16.7 9.2L16.7 9.2ZM16.7 10.1Q16.0 10.1 15.5 10.5Q14.9 10.9 14.8 11.6L14.8 11.6L18.7 11.6Q18.5 10.8 18.1 10.5Q17.6 10.1 16.7 10.1L16.7 10.1ZM28.0 9.3Q28.3 9.3 28.4 9.4Q28.4 9.5 28.4 9.7L28.4 9.7Q28.4 10.0 28.4 10.1Q28.3 10.2 28.0 10.2L28.0 10.2L27.9 10.2L26.6 14.9Q26.6 15.1 26.5 15.2Q26.3 15.3 26.1 15.3L26.1 15.3Q25.8 15.3 25.7 15.2Q25.5 15.1 25.4 14.9L25.4 14.9L24.5 12.1L23.5 14.9Q23.4 15.1 23.2 15.2Q23.1 15.3 22.8 15.3L22.8 15.3Q22.6 15.3 22.4 15.2Q22.3 15.1 22.3 14.9L22.3 14.9L21.0 10.2L20.9 10.2Q20.7 10.2 20.6 10.1Q20.5 10.0 20.5 9.7L20.5 9.7Q20.5 9.5 20.6 9.4Q20.7 9.3 20.9 9.3L20.9 9.3L22.8 9.3Q23.0 9.3 23.1 9.4Q23.2 9.5 23.2 9.7L23.2 9.7Q23.2 10.0 23.1 10.1Q23.0 10.2 22.8 10.2L22.8 10.2L22.0 10.2L22.9 13.8L24.0 10.9Q24.0 10.8 24.2 10.7Q24.3 10.6 24.5 10.6L24.5 10.6Q24.9 10.6 25.0 10.9L25.0 10.9L26.0 13.8L27.0 10.2L26.3 10.2Q26.1 10.2 26.0 10.1Q25.9 10.0 25.9 9.7L25.9 9.7Q25.9 9.5 26.0 9.4Q26.1 9.3 26.3 9.3L26.3 9.3L28.0 9.3Z M40.2 6.8Q40.5 6.8 40.6 6.9Q40.6 7.0 40.6 7.3L40.6 7.3L40.6 14.3L42.7 14.3Q42.9 14.3 43.0 14.4Q43.1 14.5 43.1 14.7L43.1 14.7Q43.1 15.0 43.0 15.1Q42.9 15.2 42.7 15.2L42.7 15.2L37.7 15.2Q37.5 15.2 37.4 15.1Q37.3 15.0 37.3 14.7L37.3 14.7Q37.3 14.5 37.4 14.4Q37.5 14.3 37.7 14.3L37.7 14.3L39.7 14.3L39.7 7.7L38.0 7.7Q37.7 7.7 37.6 7.6Q37.6 7.5 37.6 7.3L37.6 7.3Q37.6 7.0 37.6 6.9Q37.7 6.8 38.0 6.8L38.0 6.8L40.2 6.8ZM48.1 9.3Q48.3 9.3 48.4 9.4Q48.5 9.5 48.5 9.7L48.5 9.7L48.5 14.3L50.5 14.3Q50.8 14.3 50.8 14.4Q50.9 14.5 50.9 14.7L50.9 14.7Q50.9 15.0 50.8 15.1Q50.8 15.2 50.5 15.2L50.5 15.2L45.6 15.2Q45.3 15.2 45.3 15.1Q45.2 15.0 45.2 14.7L45.2 14.7Q45.2 14.5 45.3 14.4Q45.3 14.3 45.6 14.3L45.6 14.3L47.5 14.3L47.5 10.2L45.9 10.2Q45.7 10.2 45.6 10.1Q45.5 10.0 45.5 9.7L45.5 9.7Q45.5 9.5 45.6 9.4Q45.7 9.3 45.9 9.3L45.9 9.3L48.1 9.3ZM47.9 6.5Q48.2 6.5 48.4 6.6Q48.5 6.7 48.5 6.9L48.5 6.9L48.5 7.7Q48.5 8.0 48.4 8.1Q48.2 8.2 47.9 8.2L47.9 8.2Q47.5 8.2 47.4 8.1Q47.3 8.0 47.3 7.7L47.3 7.7L47.3 6.9Q47.3 6.7 47.4 6.6Q47.5 6.5 47.9 6.5L47.9 6.5ZM56.4 9.2Q57.0 9.2 57.4 9.4Q57.8 9.7 58.0 10.1Q58.3 10.6 58.3 11.2L58.3 11.2L58.3 14.3L58.8 14.3Q59.0 14.3 59.1 14.4Q59.2 14.5 59.2 14.7L59.2 14.7Q59.2 15.0 59.1 15.1Q59.0 15.2 58.8 15.2L58.8 15.2L56.7 15.2Q56.5 15.2 56.4 15.1Q56.3 15.0 56.3 14.7L56.3 14.7Q56.3 14.5 56.4 14.4Q56.5 14.3 56.7 14.3L56.7 14.3L57.3 14.3L57.3 11.3Q57.3 10.8 57.1 10.4Q56.8 10.1 56.3 10.1L56.3 10.1Q55.7 10.1 55.3 10.4Q54.8 10.7 54.5 11.3Q54.3 11.8 54.3 12.5L54.3 12.5L54.3 14.3L54.8 14.3Q55.1 14.3 55.1 14.4Q55.2 14.5 55.2 14.7L55.2 14.7Q55.2 15.0 55.1 15.1Q55.1 15.2 54.8 15.2L54.8 15.2L52.8 15.2Q52.6 15.2 52.5 15.1Q52.4 15.0 52.4 14.7L52.4 14.7Q52.4 14.5 52.5 14.4Q52.6 14.3 52.8 14.3L52.8 14.3L53.3 14.3L53.3 10.2L52.7 10.2Q52.4 10.2 52.4 10.1Q52.3 10.0 52.3 9.7L52.3 9.7Q52.3 9.5 52.4 9.4Q52.4 9.3 52.7 9.3L52.7 9.3L53.8 9.3Q54.0 9.3 54.1 9.4Q54.2 9.5 54.2 9.7L54.2 9.7L54.2 10.5Q54.6 9.8 55.2 9.5Q55.7 9.2 56.4 9.2L56.4 9.2ZM63.5 9.2Q64.4 9.2 65.1 9.5Q65.7 9.9 66.1 10.6Q66.4 11.2 66.5 12.1L66.5 12.1Q66.5 12.3 66.4 12.4Q66.3 12.5 66.1 12.5L66.1 12.5L61.5 12.5Q61.5 13.4 62.1 13.9Q62.6 14.4 63.5 14.4L63.5 14.4Q64.1 14.4 64.7 14.2Q65.2 14.1 65.7 13.8L65.7 13.8Q65.8 13.8 65.9 13.8L65.9 13.8Q66.1 13.8 66.2 14.1L66.2 14.1Q66.3 14.2 66.3 14.4L66.3 14.4Q66.3 14.6 66.0 14.7L66.0 14.7Q65.5 15.0 64.9 15.1Q64.2 15.3 63.5 15.3L63.5 15.3Q62.6 15.3 61.9 14.9Q61.2 14.6 60.8 13.9Q60.5 13.2 60.5 12.2L60.5 12.2Q60.5 11.3 60.9 10.6Q61.3 9.9 62.0 9.5Q62.6 9.2 63.5 9.2L63.5 9.2ZM63.5 10.1Q62.7 10.1 62.2 10.5Q61.7 10.9 61.6 11.6L61.6 11.6L65.4 11.6Q65.3 10.8 64.8 10.5Q64.3 10.1 63.5 10.1L63.5 10.1Z "/><mask id="satori_om-id-1"><rect x="5" y="19" width="99" height="15" fill="#fff"/></mask><rect x="5" y="19" width="99" height="15" fill="#ff000044"/><path fill="white" d="M8.9 23.2Q9.8 23.2 10.5 23.5Q11.2 23.9 11.6 24.6Q12.0 25.3 12.0 26.2L12.0 26.2Q12.0 27.1 11.6 27.8Q11.2 28.5 10.5 28.9Q9.8 29.3 8.9 29.3L8.9 29.3Q8.0 29.3 7.3 28.9Q6.6 28.5 6.2 27.8Q5.8 27.1 5.8 26.2L5.8 26.2Q5.8 25.3 6.2 24.6Q6.6 23.9 7.3 23.5Q8.0 23.2 8.9 23.2L8.9 23.2ZM8.9 24.1Q8.3 24.1 7.8 24.4Q7.3 24.6 7.1 25.1Q6.8 25.6 6.8 26.2L6.8 26.2Q6.8 26.8 7.1 27.3Q7.3 27.8 7.8 28.1Q8.3 28.4 8.9 28.4L8.9 28.4Q9.5 28.4 10.0 28.1Q10.4 27.8 10.7 27.3Q11.0 26.8 11.0 26.2L11.0 26.2Q11.0 25.6 10.7 25.1Q10.4 24.6 10.0 24.4Q9.5 24.1 8.9 24.1L8.9 24.1ZM16.9 20.8Q17.1 20.8 17.2 20.9Q17.3 21.0 17.3 21.3L17.3 21.3L17.3 28.3L19.3 28.3Q19.5 28.3 19.6 28.4Q19.7 28.5 19.7 28.7L19.7 28.7Q19.7 29.0 19.6 29.1Q19.5 29.2 19.3 29.2L19.3 29.2L14.3 29.2Q14.1 29.2 14.0 29.1Q13.9 29.0 13.9 28.7L13.9 28.7Q13.9 28.5 14.0 28.4Q14.1 28.3 14.3 28.3L14.3 28.3L16.3 28.3L16.3 21.7L14.6 21.7Q14.4 21.7 14.3 21.6Q14.2 21.5 14.2 21.3L14.2 21.3Q14.2 21.0 14.3 20.9Q14.4 20.8 14.6 20.8L14.6 20.8L16.9 20.8ZM26.7 20.8Q26.9 20.8 27.0 20.9Q27.1 21.0 27.1 21.3L27.1 21.3L27.1 28.3L27.6 28.3Q27.8 28.3 27.9 28.4Q28.0 28.5 28.0 28.7L28.0 28.7Q28.0 29.0 27.9 29.1Q27.8 29.2 27.6 29.2L27.6 29.2L26.6 29.2Q26.4 29.2 26.3 29.1Q26.2 29.0 26.2 28.7L26.2 28.7L26.2 28.2Q25.8 28.7 25.3 29.0Q24.8 29.3 24.1 29.3L24.1 29.3Q23.4 29.3 22.7 28.9Q22.1 28.6 21.8 27.9Q21.4 27.2 21.4 26.2L21.4 26.2Q21.4 25.3 21.8 24.6Q22.1 23.9 22.7 23.5Q23.4 23.2 24.1 23.2L24.1 23.2Q25.3 23.2 26.2 24.2L26.2 24.2L26.2 21.7L25.1 21.7Q24.9 21.7 24.8 21.6Q24.7 21.5 24.7 21.3L24.7 21.3Q24.7 21.0 24.8 20.9Q24.9 20.8 25.1 20.8L25.1 20.8L26.7 20.8ZM24.2 24.1Q23.6 24.1 23.2 24.4Q22.8 24.6 22.6 25.1Q22.4 25.6 22.4 26.2L22.4 26.2Q22.4 26.9 22.6 27.3Q22.8 27.8 23.2 28.1Q23.6 28.4 24.2 28.4L24.2 28.4Q24.8 28.4 25.2 28.1Q25.6 27.8 25.9 27.4Q26.2 26.9 26.2 26.2L26.2 26.2Q26.2 25.6 25.9 25.1Q25.6 24.6 25.2 24.3Q24.8 24.1 24.2 24.1L24.2 24.1Z M40.2 20.8Q40.5 20.8 40.6 20.9Q40.6 21.0 40.6 21.3L40.6 21.3L40.6 28.3L42.7 28.3Q42.9 28.3 43.0 28.4Q43.1 28.5 43.1 28.7L43.1 28.7Q43.1 29.0 43.0 29.1Q42.9 29.2 42.7 29.2L42.7 29.2L37.7 29.2Q37.5 29.2 37.4 29.1Q37.3 29.0 37.3 28.7L37.3 28.7Q37.3 28.5 37.4 28.4Q37.5 28.3 37.7 28.3L37.7 28.3L39.7 28.3L39.7 21.7L38.0 21.7Q37.7 21.7 37.6 21.6Q37.6 21.5 37.6 21.3L37.6 21.3Q37.6 21.0 37.6 20.9Q37.7 20.8 38.0 20.8L38.0 20.8L40.2 20.8ZM48.1 23.3Q48.3 23.3 48.4 23.4Q48.5 23.5 48.5 23.7L48.5 23.7L48.5 28.3L50.5 28.3Q50.8 28.3 50.8 28.4Q50.9 28.5 50.9 28.7L50.9 28.7Q50.9 29.0 50.8 29.1Q50.8 29.2 50.5 29.2L50.5 29.2L45.6 29.2Q45.3 29.2 45.3 29.1Q45.2 29.0 45.2 28.7L45.2 28.7Q45.2 28.5 45.3 28.4Q45.3 28.3 45.6 28.3L45.6 28.3L47.5 28.3L47.5 24.2L45.9 24.2Q45.7 24.2 45.6 24.1Q45.5 24.0 45.5 23.7L45.5 23.7Q45.5 23.5 45.6 23.4Q45.7 23.3 45.9 23.3L45.9 23.3L48.1 23.3ZM47.9 20.5Q48.2 20.5 48.4 20.6Q48.5 20.7 48.5 20.9L48.5 20.9L48.5 21.7Q48.5 22.0 48.4 22.1Q48.2 22.2 47.9 22.2L47.9 22.2Q47.5 22.2 47.4 22.1Q47.3 22.0 47.3 21.7L47.3 21.7L47.3 20.9Q47.3 20.7 47.4 20.6Q47.5 20.5 47.9 20.5L47.9 20.5ZM56.4 23.2Q57.0 23.2 57.4 23.4Q57.8 23.7 58.0 24.1Q58.3 24.6 58.3 25.2L58.3 25.2L58.3 28.3L58.8 28.3Q59.0 28.3 59.1 28.4Q59.2 28.5 59.2 28.7L59.2 28.7Q59.2 29.0 59.1 29.1Q59.0 29.2 58.8 29.2L58.8 29.2L56.7 29.2Q56.5 29.2 56.4 29.1Q56.3 29.0 56.3 28.7L56.3 28.7Q56.3 28.5 56.4 28.4Q56.5 28.3 56.7 28.3L56.7 28.3L57.3 28.3L57.3 25.3Q57.3 24.8 57.1 24.4Q56.8 24.1 56.3 24.1L56.3 24.1Q55.7 24.1 55.3 24.4Q54.8 24.7 54.5 25.3Q54.3 25.8 54.3 26.5L54.3 26.5L54.3 28.3L54.8 28.3Q55.1 28.3 55.1 28.4Q55.2 28.5 55.2 28.7L55.2 28.7Q55.2 29.0 55.1 29.1Q55.1 29.2 54.8 29.2L54.8 29.2L52.8 29.2Q52.6 29.2 52.5 29.1Q52.4 29.0 52.4 28.7L52.4 28.7Q52.4 28.5 52.5 28.4Q52.6 28.3 52.8 28.3L52.8 28.3L53.3 28.3L53.3 24.2L52.7 24.2Q52.4 24.2 52.4 24.1Q52.3 24.0 52.3 23.7L52.3 23.7Q52.3 23.5 52.4 23.4Q52.4 23.3 52.7 23.3L52.7 23.3L53.8 23.3Q54.0 23.3 54.1 23.4Q54.2 23.5 54.2 23.7L54.2 23.7L54.2 24.5Q54.6 23.8 55.2 23.5Q55.7 23.2 56.4 23.2L56.4 23.2ZM63.5 23.2Q64.4 23.2 65.1 23.5Q65.7 23.9 66.1 24.6Q66.4 25.2 66.5 26.1L66.5 26.1Q66.5 26.3 66.4 26.4Q66.3 26.5 66.1 26.5L66.1 26.5L61.5 26.5Q61.5 27.4 62.1 27.9Q62.6 28.4 63.5 28.4L63.5 28.4Q64.1 28.4 64.7 28.2Q65.2 28.1 65.7 27.8L65.7 27.8Q65.8 27.8 65.9 27.8L65.9 27.8Q66.1 27.8 66.2 28.1L66.2 28.1Q66.3 28.2 66.3 28.4L66.3 28.4Q66.3 28.6 66.0 28.7L66.0 28.7Q65.5 29.0 64.9 29.1Q64.2 29.3 63.5 29.3L63.5 29.3Q62.6 29.3 61.9 28.9Q61.2 28.6 60.8 27.9Q60.5 27.2 60.5 26.2L60.5 26.2Q60.5 25.3 60.9 24.6Q61.3 23.9 62.0 23.5Q62.6 23.2 63.5 23.2L63.5 23.2ZM63.5 24.1Q62.7 24.1 62.2 24.5Q61.7 24.9 61.6 25.6L61.6 25.6L65.4 25.6Q65.3 24.8 64.8 24.5Q64.3 24.1 63.5 24.1L63.5 24.1Z "/><mask id="satori_om-id-2"><rect x="5" y="34" width="99" height="14" fill="#fff"/></mask><rect x="5" y="34" width="99" height="14" fill="#00ff0044"/><path fill="white" d="M9.6 38.2Q10.2 38.2 10.6 38.4Q11.0 38.7 11.3 39.1Q11.5 39.6 11.5 40.2L11.5 40.2L11.5 43.3L12.0 43.3Q12.2 43.3 12.3 43.4Q12.4 43.5 12.4 43.7L12.4 43.7Q12.4 44.0 12.3 44.1Q12.2 44.2 12.0 44.2L12.0 44.2L10.0 44.2Q9.7 44.2 9.7 44.1Q9.6 44.0 9.6 43.7L9.6 43.7Q9.6 43.5 9.7 43.4Q9.7 43.3 10.0 43.3L10.0 43.3L10.5 43.3L10.5 40.3Q10.5 39.8 10.3 39.4Q10.0 39.1 9.5 39.1L9.5 39.1Q9.0 39.1 8.5 39.4Q8.0 39.7 7.8 40.3Q7.5 40.8 7.5 41.5L7.5 41.5L7.5 43.3L8.1 43.3Q8.3 43.3 8.4 43.4Q8.5 43.5 8.5 43.7L8.5 43.7Q8.5 44.0 8.4 44.1Q8.3 44.2 8.1 44.2L8.1 44.2L6.0 44.2Q5.8 44.2 5.7 44.1Q5.6 44.0 5.6 43.7L5.6 43.7Q5.6 43.5 5.7 43.4Q5.8 43.3 6.0 43.3L6.0 43.3L6.5 43.3L6.5 39.2L5.9 39.2Q5.7 39.2 5.6 39.1Q5.5 39.0 5.5 38.7L5.5 38.7Q5.5 38.5 5.6 38.4Q5.7 38.3 5.9 38.3L5.9 38.3L7.0 38.3Q7.2 38.3 7.3 38.4Q7.4 38.5 7.4 38.7L7.4 38.7L7.4 39.5Q7.8 38.8 8.4 38.5Q9.0 38.2 9.6 38.2L9.6 38.2ZM16.7 38.2Q17.7 38.2 18.3 38.5Q19.0 38.9 19.3 39.6Q19.7 40.2 19.7 41.1L19.7 41.1Q19.7 41.3 19.6 41.4Q19.5 41.5 19.3 41.5L19.3 41.5L14.7 41.5Q14.8 42.4 15.3 42.9Q15.8 43.4 16.7 43.4L16.7 43.4Q17.3 43.4 17.9 43.2Q18.5 43.1 18.9 42.8L18.9 42.8Q19.0 42.8 19.1 42.8L19.1 42.8Q19.3 42.8 19.5 43.1L19.5 43.1Q19.5 43.2 19.5 43.4L19.5 43.4Q19.5 43.6 19.2 43.7L19.2 43.7Q18.8 44.0 18.1 44.1Q17.4 44.3 16.7 44.3L16.7 44.3Q15.8 44.3 15.1 43.9Q14.4 43.6 14.1 42.9Q13.7 42.2 13.7 41.2L13.7 41.2Q13.7 40.3 14.1 39.6Q14.5 38.9 15.2 38.5Q15.9 38.2 16.7 38.2L16.7 38.2ZM16.7 39.1Q16.0 39.1 15.5 39.5Q14.9 39.9 14.8 40.6L14.8 40.6L18.7 40.6Q18.5 39.8 18.1 39.5Q17.6 39.1 16.7 39.1L16.7 39.1ZM28.0 38.3Q28.3 38.3 28.4 38.4Q28.4 38.5 28.4 38.7L28.4 38.7Q28.4 39.0 28.4 39.1Q28.3 39.2 28.0 39.2L28.0 39.2L27.9 39.2L26.6 43.9Q26.6 44.1 26.5 44.2Q26.3 44.3 26.1 44.3L26.1 44.3Q25.8 44.3 25.7 44.2Q25.5 44.1 25.4 43.9L25.4 43.9L24.5 41.1L23.5 43.9Q23.4 44.1 23.2 44.2Q23.1 44.3 22.8 44.3L22.8 44.3Q22.6 44.3 22.4 44.2Q22.3 44.1 22.3 43.9L22.3 43.9L21.0 39.2L20.9 39.2Q20.7 39.2 20.6 39.1Q20.5 39.0 20.5 38.7L20.5 38.7Q20.5 38.5 20.6 38.4Q20.7 38.3 20.9 38.3L20.9 38.3L22.8 38.3Q23.0 38.3 23.1 38.4Q23.2 38.5 23.2 38.7L23.2 38.7Q23.2 39.0 23.1 39.1Q23.0 39.2 22.8 39.2L22.8 39.2L22.0 39.2L22.9 42.8L24.0 39.9Q24.0 39.8 24.2 39.7Q24.3 39.6 24.5 39.6L24.5 39.6Q24.9 39.6 25.0 39.9L25.0 39.9L26.0 42.8L27.0 39.2L26.3 39.2Q26.1 39.2 26.0 39.1Q25.9 39.0 25.9 38.7L25.9 38.7Q25.9 38.5 26.0 38.4Q26.1 38.3 26.3 38.3L26.3 38.3L28.0 38.3Z M40.2 35.8Q40.5 35.8 40.6 35.9Q40.6 36.0 40.6 36.3L40.6 36.3L40.6 43.3L42.7 43.3Q42.9 43.3 43.0 43.4Q43.1 43.5 43.1 43.7L43.1 43.7Q43.1 44.0 43.0 44.1Q42.9 44.2 42.7 44.2L42.7 44.2L37.7 44.2Q37.5 44.2 37.4 44.1Q37.3 44.0 37.3 43.7L37.3 43.7Q37.3 43.5 37.4 43.4Q37.5 43.3 37.7 43.3L37.7 43.3L39.7 43.3L39.7 36.7L38.0 36.7Q37.7 36.7 37.6 36.6Q37.6 36.5 37.6 36.3L37.6 36.3Q37.6 36.0 37.6 35.9Q37.7 35.8 38.0 35.8L38.0 35.8L40.2 35.8ZM48.1 38.3Q48.3 38.3 48.4 38.4Q48.5 38.5 48.5 38.7L48.5 38.7L48.5 43.3L50.5 43.3Q50.8 43.3 50.8 43.4Q50.9 43.5 50.9 43.7L50.9 43.7Q50.9 44.0 50.8 44.1Q50.8 44.2 50.5 44.2L50.5 44.2L45.6 44.2Q45.3 44.2 45.3 44.1Q45.2 44.0 45.2 43.7L45.2 43.7Q45.2 43.5 45.3 43.4Q45.3 43.3 45.6 43.3L45.6 43.3L47.5 43.3L47.5 39.2L45.9 39.2Q45.7 39.2 45.6 39.1Q45.5 39.0 45.5 38.7L45.5 38.7Q45.5 38.5 45.6 38.4Q45.7 38.3 45.9 38.3L45.9 38.3L48.1 38.3ZM47.9 35.5Q48.2 35.5 48.4 35.6Q48.5 35.7 48.5 35.9L48.5 35.9L48.5 36.7Q48.5 37.0 48.4 37.1Q48.2 37.2 47.9 37.2L47.9 37.2Q47.5 37.2 47.4 37.1Q47.3 37.0 47.3 36.7L47.3 36.7L47.3 35.9Q47.3 35.7 47.4 35.6Q47.5 35.5 47.9 35.5L47.9 35.5ZM56.4 38.2Q57.0 38.2 57.4 38.4Q57.8 38.7 58.0 39.1Q58.3 39.6 58.3 40.2L58.3 40.2L58.3 43.3L58.8 43.3Q59.0 43.3 59.1 43.4Q59.2 43.5 59.2 43.7L59.2 43.7Q59.2 44.0 59.1 44.1Q59.0 44.2 58.8 44.2L58.8 44.2L56.7 44.2Q56.5 44.2 56.4 44.1Q56.3 44.0 56.3 43.7L56.3 43.7Q56.3 43.5 56.4 43.4Q56.5 43.3 56.7 43.3L56.7 43.3L57.3 43.3L57.3 40.3Q57.3 39.8 57.1 39.4Q56.8 39.1 56.3 39.1L56.3 39.1Q55.7 39.1 55.3 39.4Q54.8 39.7 54.5 40.3Q54.3 40.8 54.3 41.5L54.3 41.5L54.3 43.3L54.8 43.3Q55.1 43.3 55.1 43.4Q55.2 43.5 55.2 43.7L55.2 43.7Q55.2 44.0 55.1 44.1Q55.1 44.2 54.8 44.2L54.8 44.2L52.8 44.2Q52.6 44.2 52.5 44.1Q52.4 44.0 52.4 43.7L52.4 43.7Q52.4 43.5 52.5 43.4Q52.6 43.3 52.8 43.3L52.8 43.3L53.3 43.3L53.3 39.2L52.7 39.2Q52.4 39.2 52.4 39.1Q52.3 39.0 52.3 38.7L52.3 38.7Q52.3 38.5 52.4 38.4Q52.4 38.3 52.7 38.3L52.7 38.3L53.8 38.3Q54.0 38.3 54.1 38.4Q54.2 38.5 54.2 38.7L54.2 38.7L54.2 39.5Q54.6 38.8 55.2 38.5Q55.7 38.2 56.4 38.2L56.4 38.2ZM63.5 38.2Q64.4 38.2 65.1 38.5Q65.7 38.9 66.1 39.6Q66.4 40.2 66.5 41.1L66.5 41.1Q66.5 41.3 66.4 41.4Q66.3 41.5 66.1 41.5L66.1 41.5L61.5 41.5Q61.5 42.4 62.1 42.9Q62.6 43.4 63.5 43.4L63.5 43.4Q64.1 43.4 64.7 43.2Q65.2 43.1 65.7 42.8L65.7 42.8Q65.8 42.8 65.9 42.8L65.9 42.8Q66.1 42.8 66.2 43.1L66.2 43.1Q66.3 43.2 66.3 43.4L66.3 43.4Q66.3 43.6 66.0 43.7L66.0 43.7Q65.5 44.0 64.9 44.1Q64.2 44.3 63.5 44.3L63.5 44.3Q62.6 44.3 61.9 43.9Q61.2 43.6 60.8 42.9Q60.5 42.2 60.5 41.2L60.5 41.2Q60.5 40.3 60.9 39.6Q61.3 38.9 62.0 38.5Q62.6 38.2 63.5 38.2L63.5 38.2ZM63.5 39.1Q62.7 39.1 62.2 39.5Q61.7 39.9 61.6 40.6L61.6 40.6L65.4 40.6Q65.3 39.8 64.8 39.5Q64.3 39.1 63.5 39.1L63.5 39.1Z "/><mask id="satori_om-id-3"><rect x="5" y="48" width="99" height="15" fill="#fff"/></mask><rect x="5" y="48" width="99" height="15" fill="#ff000044"/><path fill="white" d="M8.9 52.2Q9.8 52.2 10.5 52.5Q11.2 52.9 11.6 53.6Q12.0 54.3 12.0 55.2L12.0 55.2Q12.0 56.1 11.6 56.8Q11.2 57.5 10.5 57.9Q9.8 58.3 8.9 58.3L8.9 58.3Q8.0 58.3 7.3 57.9Q6.6 57.5 6.2 56.8Q5.8 56.1 5.8 55.2L5.8 55.2Q5.8 54.3 6.2 53.6Q6.6 52.9 7.3 52.5Q8.0 52.2 8.9 52.2L8.9 52.2ZM8.9 53.1Q8.3 53.1 7.8 53.4Q7.3 53.6 7.1 54.1Q6.8 54.6 6.8 55.2L6.8 55.2Q6.8 55.8 7.1 56.3Q7.3 56.8 7.8 57.1Q8.3 57.4 8.9 57.4L8.9 57.4Q9.5 57.4 10.0 57.1Q10.4 56.8 10.7 56.3Q11.0 55.8 11.0 55.2L11.0 55.2Q11.0 54.6 10.7 54.1Q10.4 53.6 10.0 53.4Q9.5 53.1 8.9 53.1L8.9 53.1ZM16.9 49.8Q17.1 49.8 17.2 49.9Q17.3 50.0 17.3 50.3L17.3 50.3L17.3 57.3L19.3 57.3Q19.5 57.3 19.6 57.4Q19.7 57.5 19.7 57.7L19.7 57.7Q19.7 58.0 19.6 58.1Q19.5 58.2 19.3 58.2L19.3 58.2L14.3 58.2Q14.1 58.2 14.0 58.1Q13.9 58.0 13.9 57.7L13.9 57.7Q13.9 57.5 14.0 57.4Q14.1 57.3 14.3 57.3L14.3 57.3L16.3 57.3L16.3 50.7L14.6 50.7Q14.4 50.7 14.3 50.6Q14.2 50.5 14.2 50.3L14.2 50.3Q14.2 50.0 14.3 49.9Q14.4 49.8 14.6 49.8L14.6 49.8L16.9 49.8ZM26.7 49.8Q26.9 49.8 27.0 49.9Q27.1 50.0 27.1 50.3L27.1 50.3L27.1 57.3L27.6 57.3Q27.8 57.3 27.9 57.4Q28.0 57.5 28.0 57.7L28.0 57.7Q28.0 58.0 27.9 58.1Q27.8 58.2 27.6 58.2L27.6 58.2L26.6 58.2Q26.4 58.2 26.3 58.1Q26.2 58.0 26.2 57.7L26.2 57.7L26.2 57.2Q25.8 57.7 25.3 58.0Q24.8 58.3 24.1 58.3L24.1 58.3Q23.4 58.3 22.7 57.9Q22.1 57.6 21.8 56.9Q21.4 56.2 21.4 55.2L21.4 55.2Q21.4 54.3 21.8 53.6Q22.1 52.9 22.7 52.5Q23.4 52.2 24.1 52.2L24.1 52.2Q25.3 52.2 26.2 53.2L26.2 53.2L26.2 50.7L25.1 50.7Q24.9 50.7 24.8 50.6Q24.7 50.5 24.7 50.3L24.7 50.3Q24.7 50.0 24.8 49.9Q24.9 49.8 25.1 49.8L25.1 49.8L26.7 49.8ZM24.2 53.1Q23.6 53.1 23.2 53.4Q22.8 53.6 22.6 54.1Q22.4 54.6 22.4 55.2L22.4 55.2Q22.4 55.9 22.6 56.3Q22.8 56.8 23.2 57.1Q23.6 57.4 24.2 57.4L24.2 57.4Q24.8 57.4 25.2 57.1Q25.6 56.8 25.9 56.4Q26.2 55.9 26.2 55.2L26.2 55.2Q26.2 54.6 25.9 54.1Q25.6 53.6 25.2 53.3Q24.8 53.1 24.2 53.1L24.2 53.1Z M40.2 49.8Q40.5 49.8 40.6 49.9Q40.6 50.0 40.6 50.3L40.6 50.3L40.6 57.3L42.7 57.3Q42.9 57.3 43.0 57.4Q43.1 57.5 43.1 57.7L43.1 57.7Q43.1 58.0 43.0 58.1Q42.9 58.2 42.7 58.2L42.7 58.2L37.7 58.2Q37.5 58.2 37.4 58.1Q37.3 58.0 37.3 57.7L37.3 57.7Q37.3 57.5 37.4 57.4Q37.5 57.3 37.7 57.3L37.7 57.3L39.7 57.3L39.7 50.7L38.0 50.7Q37.7 50.7 37.6 50.6Q37.6 50.5 37.6 50.3L37.6 50.3Q37.6 50.0 37.6 49.9Q37.7 49.8 38.0 49.8L38.0 49.8L40.2 49.8ZM48.1 52.3Q48.3 52.3 48.4 52.4Q48.5 52.5 48.5 52.7L48.5 52.7L48.5 57.3L50.5 57.3Q50.8 57.3 50.8 57.4Q50.9 57.5 50.9 57.7L50.9 57.7Q50.9 58.0 50.8 58.1Q50.8 58.2 50.5 58.2L50.5 58.2L45.6 58.2Q45.3 58.2 45.3 58.1Q45.2 58.0 45.2 57.7L45.2 57.7Q45.2 57.5 45.3 57.4Q45.3 57.3 45.6 57.3L45.6 57.3L47.5 57.3L47.5 53.2L45.9 53.2Q45.7 53.2 45.6 53.1Q45.5 53.0 45.5 52.7L45.5 52.7Q45.5 52.5 45.6 52.4Q45.7 52.3 45.9 52.3L45.9 52.3L48.1 52.3ZM47.9 49.5Q48.2 49.5 48.4 49.6Q48.5 49.7 48.5 49.9L48.5 49.9L48.5 50.7Q48.5 51.0 48.4 51.1Q48.2 51.2 47.9 51.2L47.9 51.2Q47.5 51.2 47.4 51.1Q47.3 51.0 47.3 50.7L47.3 50.7L47.3 49.9Q47.3 49.7 47.4 49.6Q47.5 49.5 47.9 49.5L47.9 49.5ZM56.4 52.2Q57.0 52.2 57.4 52.4Q57.8 52.7 58.0 53.1Q58.3 53.6 58.3 54.2L58.3 54.2L58.3 57.3L58.8 57.3Q59.0 57.3 59.1 57.4Q59.2 57.5 59.2 57.7L59.2 57.7Q59.2 58.0 59.1 58.1Q59.0 58.2 58.8 58.2L58.8 58.2L56.7 58.2Q56.5 58.2 56.4 58.1Q56.3 58.0 56.3 57.7L56.3 57.7Q56.3 57.5 56.4 57.4Q56.5 57.3 56.7 57.3L56.7 57.3L57.3 57.3L57.3 54.3Q57.3 53.8 57.1 53.4Q56.8 53.1 56.3 53.1L56.3 53.1Q55.7 53.1 55.3 53.4Q54.8 53.7 54.5 54.3Q54.3 54.8 54.3 55.5L54.3 55.5L54.3 57.3L54.8 57.3Q55.1 57.3 55.1 57.4Q55.2 57.5 55.2 57.7L55.2 57.7Q55.2 58.0 55.1 58.1Q55.1 58.2 54.8 58.2L54.8 58.2L52.8 58.2Q52.6 58.2 52.5 58.1Q52.4 58.0 52.4 57.7L52.4 57.7Q52.4 57.5 52.5 57.4Q52.6 57.3 52.8 57.3L52.8 57.3L53.3 57.3L53.3 53.2L52.7 53.2Q52.4 53.2 52.4 53.1Q52.3 53.0 52.3 52.7L52.3 52.7Q52.3 52.5 52.4 52.4Q52.4 52.3 52.7 52.3L52.7 52.3L53.8 52.3Q54.0 52.3 54.1 52.4Q54.2 52.5 54.2 52.7L54.2 52.7L54.2 53.5Q54.6 52.8 55.2 52.5Q55.7 52.2 56.4 52.2L56.4 52.2ZM63.5 52.2Q64.4 52.2 65.1 52.5Q65.7 52.9 66.1 53.6Q66.4 54.2 66.5 55.1L66.5 55.1Q66.5 55.3 66.4 55.4Q66.3 55.5 66.1 55.5L66.1 55.5L61.5 55.5Q61.5 56.4 62.1 56.9Q62.6 57.4 63.5 57.4L63.5 57.4Q64.1 57.4 64.7 57.2Q65.2 57.1 65.7 56.8L65.7 56.8Q65.8 56.8 65.9 56.8L65.9 56.8Q66.1 56.8 66.2 57.1L66.2 57.1Q66.3 57.2 66.3 57.4L66.3 57.4Q66.3 57.6 66.0 57.7L66.0 57.7Q65.5 58.0 64.9 58.1Q64.2 58.3 63.5 58.3L63.5 58.3Q62.6 58.3 61.9 57.9Q61.2 57.6 60.8 56.9Q60.5 56.2 60.5 55.2L60.5 55.2Q60.5 54.3 60.9 53.6Q61.3 52.9 62.0 52.5Q62.6 52.2 63.5 52.2L63.5 52.2ZM63.5 53.1Q62.7 53.1 62.2 53.5Q61.7 53.9 61.6 54.6L61.6 54.6L65.4 54.6Q65.3 53.8 64.8 53.5Q64.3 53.1 63.5 53.1L63.5 53.1Z "/><mask id="satori_om-id-4"><rect x="5" y="63" width="99" height="14" fill="#fff"/></mask><rect x="5" y="63" width="99" height="14" fill="#ff000044"/><path fill="white" d="M9.1 64.8Q9.3 64.8 9.4 64.9Q9.5 65.0 9.5 65.3L9.5 65.3L9.5 72.3L11.5 72.3Q11.7 72.3 11.8 72.4Q11.9 72.5 11.9 72.7L11.9 72.7Q11.9 73.0 11.8 73.1Q11.7 73.2 11.5 73.2L11.5 73.2L6.5 73.2Q6.3 73.2 6.2 73.1Q6.1 73.0 6.1 72.7L6.1 72.7Q6.1 72.5 6.2 72.4Q6.3 72.3 6.5 72.3L6.5 72.3L8.5 72.3L8.5 65.7L6.8 65.7Q6.6 65.7 6.5 65.6Q6.4 65.5 6.4 65.3L6.4 65.3Q6.4 65.0 6.5 64.9Q6.6 64.8 6.8 64.8L6.8 64.8L9.1 64.8ZM16.9 67.3Q17.1 67.3 17.2 67.4Q17.3 67.5 17.3 67.7L17.3 67.7L17.3 72.3L19.4 72.3Q19.6 72.3 19.7 72.4Q19.8 72.5 19.8 72.7L19.8 72.7Q19.8 73.0 19.7 73.1Q19.6 73.2 19.4 73.2L19.4 73.2L14.4 73.2Q14.2 73.2 14.1 73.1Q14.0 73.0 14.0 72.7L14.0 72.7Q14.0 72.5 14.1 72.4Q14.2 72.3 14.4 72.3L14.4 72.3L16.4 72.3L16.4 68.2L14.8 68.2Q14.5 68.2 14.5 68.1Q14.4 68.0 14.4 67.7L14.4 67.7Q14.4 67.5 14.5 67.4Q14.5 67.3 14.8 67.3L14.8 67.3L16.9 67.3ZM16.7 64.5Q17.1 64.5 17.2 64.6Q17.3 64.7 17.3 64.9L17.3 64.9L17.3 65.7Q17.3 66.0 17.2 66.1Q17.1 66.2 16.7 66.2L16.7 66.2Q16.4 66.2 16.2 66.1Q16.1 66.0 16.1 65.7L16.1 65.7L16.1 64.9Q16.1 64.7 16.2 64.6Q16.4 64.5 16.7 64.5L16.7 64.5ZM25.2 67.2Q25.8 67.2 26.2 67.4Q26.6 67.7 26.9 68.1Q27.1 68.6 27.1 69.2L27.1 69.2L27.1 72.3L27.6 72.3Q27.8 72.3 27.9 72.4Q28.0 72.5 28.0 72.7L28.0 72.7Q28.0 73.0 27.9 73.1Q27.8 73.2 27.6 73.2L27.6 73.2L25.6 73.2Q25.3 73.2 25.2 73.1Q25.2 73.0 25.2 72.7L25.2 72.7Q25.2 72.5 25.2 72.4Q25.3 72.3 25.6 72.3L25.6 72.3L26.1 72.3L26.1 69.3Q26.1 68.8 25.9 68.4Q25.6 68.1 25.1 68.1L25.1 68.1Q24.6 68.1 24.1 68.4Q23.6 68.7 23.4 69.3Q23.1 69.8 23.1 70.5L23.1 70.5L23.1 72.3L23.7 72.3Q23.9 72.3 24.0 72.4Q24.1 72.5 24.1 72.7L24.1 72.7Q24.1 73.0 24.0 73.1Q23.9 73.2 23.7 73.2L23.7 73.2L21.6 73.2Q21.4 73.2 21.3 73.1Q21.2 73.0 21.2 72.7L21.2 72.7Q21.2 72.5 21.3 72.4Q21.4 72.3 21.6 72.3L21.6 72.3L22.1 72.3L22.1 68.2L21.5 68.2Q21.3 68.2 21.2 68.1Q21.1 68.0 21.1 67.7L21.1 67.7Q21.1 67.5 21.2 67.4Q21.3 67.3 21.5 67.3L21.5 67.3L22.6 67.3Q22.8 67.3 22.9 67.4Q23.0 67.5 23.0 67.7L23.0 67.7L23.0 68.5Q23.4 67.8 24.0 67.5Q24.6 67.2 25.2 67.2L25.2 67.2ZM32.3 67.2Q33.3 67.2 33.9 67.5Q34.6 67.9 34.9 68.6Q35.3 69.2 35.3 70.1L35.3 70.1Q35.3 70.3 35.2 70.4Q35.1 70.5 34.9 70.5L34.9 70.5L30.3 70.5Q30.4 71.4 30.9 71.9Q31.4 72.4 32.3 72.4L32.3 72.4Q32.9 72.4 33.5 72.2Q34.1 72.1 34.5 71.8L34.5 71.8Q34.6 71.8 34.7 71.8L34.7 71.8Q34.9 71.8 35.1 72.1L35.1 72.1Q35.1 72.2 35.1 72.4L35.1 72.4Q35.1 72.6 34.8 72.7L34.8 72.7Q34.3 73.0 33.7 73.1Q33.0 73.3 32.3 73.3L32.3 73.3Q31.4 73.3 30.7 72.9Q30.0 72.6 29.7 71.9Q29.3 71.2 29.3 70.2L29.3 70.2Q29.3 69.3 29.7 68.6Q30.1 67.9 30.8 67.5Q31.5 67.2 32.3 67.2L32.3 67.2ZM32.3 68.1Q31.6 68.1 31.0 68.5Q30.5 68.9 30.4 69.6L30.4 69.6L34.3 69.6Q34.1 68.8 33.6 68.5Q33.2 68.1 32.3 68.1L32.3 68.1Z "/></svg>